# xmcd
#
# Track frame offsets:
#	150
#	24822
#	43432
#	57876
#	76372
#	93310
#	108392
#	125862
#	139885
#	156989
#	170336
#	191933
#
# Disc length: 2797 seconds
#
# Revision: 1
# Processed by: cddbd v1.5.2PL0 Copyright (c) Steve Scherf et al.
# Submitted via: audiograbber 1.83.01
#
DISCID=a80aeb0c
DTITLE=Lucero - 1372 Overton Park
DYEAR=2009
DGENRE=Country
TTITLE0=Smoke
TTITLE1=What Are You Willing To Lose?
TTITLE2=Sounds Of The City
TTITLE3=Can't Feel A Thing
TTITLE4=The Devil And Maggie Chascarillo
TTITLE5=Sixes And Sevens
TTITLE6=Goodbye Again
TTITLE7=Johnny Davis
TTITLE8=Darken My Door
TTITLE9=Halfway Wrong
TTITLE10=Hey Darlin' Do You Gamble?
TTITLE11=Mom
EXTD=
EXTT0=
EXTT1=
EXTT2=
EXTT3=
EXTT4=
EXTT5=
EXTT6=
EXTT7=
EXTT8=
EXTT9=
EXTT10=
EXTT11=
PLAYORDER=
